M48
; DRILL file {KiCad (5.1.8)-1} date 10/25/22 22:50:28
; FORMAT={3:3/ absolute / metric / suppress leading zeros}
; #@! TF.CreationDate,2022-10-25T22:50:28+09:00
; #@! TF.GenerationSoftware,Kicad,Pcbnew,(5.1.8)-1
FMAT,2
METRIC,TZ
T1C1.000
T2C1.524
%
G90
G05
T1
X23495Y19685
X23495Y17145
X23495Y14605
X23495Y12065
X23495Y9525
X23495Y6985
X23495Y4445
X23495Y1905
T2
X2540Y15875
X2540Y5715
X5715Y13335
X5715Y8255
X12700Y18415
X12700Y10795
X12700Y3175
X15240Y15875
X15240Y5715
X17780Y18415
X17780Y10795
X17780Y3175
T0
M30
