G04 #@! TF.GenerationSoftware,KiCad,Pcbnew,(5.1.8)-1*
G04 #@! TF.CreationDate,2022-10-25T22:50:25+09:00*
G04 #@! TF.ProjectId,DIN8,44494e38-2e6b-4696-9361-645f70636258,rev?*
G04 #@! TF.SameCoordinates,PX48ab840PY9765530*
G04 #@! TF.FileFunction,Legend,Top*
G04 #@! TF.FilePolarity,Positive*
%FSLAX46Y46*%
G04 Gerber Fmt 4.6, Leading zero omitted, Abs format (unit mm)*
G04 Created by KiCad (PCBNEW (5.1.8)-1) date 2022-10-25 22:50:25*
%MOMM*%
%LPD*%
G01*
G04 APERTURE LIST*
%ADD10C,0.150000*%
%ADD11C,0.120000*%
G04 APERTURE END LIST*
D10*
X20046904Y17450000D02*
X19246904Y17450000D01*
X19246904Y17640477D01*
X19285000Y17754762D01*
X19361190Y17830953D01*
X19437380Y17869048D01*
X19589761Y17907143D01*
X19704047Y17907143D01*
X19856428Y17869048D01*
X19932619Y17830953D01*
X20008809Y17754762D01*
X20046904Y17640477D01*
X20046904Y17450000D01*
X20046904Y18250000D02*
X19246904Y18250000D01*
X20046904Y18630953D02*
X19246904Y18630953D01*
X20046904Y19088096D01*
X19246904Y19088096D01*
X19246904Y19850000D02*
X19246904Y19469048D01*
X19627857Y19430953D01*
X19589761Y19469048D01*
X19551666Y19545239D01*
X19551666Y19735715D01*
X19589761Y19811905D01*
X19627857Y19850000D01*
X19704047Y19888096D01*
X19894523Y19888096D01*
X19970714Y19850000D01*
X20008809Y19811905D01*
X20046904Y19735715D01*
X20046904Y19545239D01*
X20008809Y19469048D01*
X19970714Y19430953D01*
X20046904Y20230953D02*
X19246904Y20230953D01*
X19246904Y20535715D01*
X19285000Y20611905D01*
X19323095Y20650000D01*
X19399285Y20688096D01*
X19513571Y20688096D01*
X19589761Y20650000D01*
X19627857Y20611905D01*
X19665952Y20535715D01*
X19665952Y20230953D01*
X21494761Y1828810D02*
X21456666Y1752620D01*
X21418571Y1714524D01*
X21342380Y1676429D01*
X21304285Y1676429D01*
X21228095Y1714524D01*
X21190000Y1752620D01*
X21151904Y1828810D01*
X21151904Y1981191D01*
X21190000Y2057381D01*
X21228095Y2095477D01*
X21304285Y2133572D01*
X21342380Y2133572D01*
X21418571Y2095477D01*
X21456666Y2057381D01*
X21494761Y1981191D01*
X21494761Y1828810D01*
X21532857Y1752620D01*
X21570952Y1714524D01*
X21647142Y1676429D01*
X21799523Y1676429D01*
X21875714Y1714524D01*
X21913809Y1752620D01*
X21951904Y1828810D01*
X21951904Y1981191D01*
X21913809Y2057381D01*
X21875714Y2095477D01*
X21799523Y2133572D01*
X21647142Y2133572D01*
X21570952Y2095477D01*
X21532857Y2057381D01*
X21494761Y1981191D01*
X21151904Y4178334D02*
X21151904Y4711667D01*
X21951904Y4368810D01*
X21151904Y7137381D02*
X21151904Y6985000D01*
X21190000Y6908810D01*
X21228095Y6870715D01*
X21342380Y6794524D01*
X21494761Y6756429D01*
X21799523Y6756429D01*
X21875714Y6794524D01*
X21913809Y6832620D01*
X21951904Y6908810D01*
X21951904Y7061191D01*
X21913809Y7137381D01*
X21875714Y7175477D01*
X21799523Y7213572D01*
X21609047Y7213572D01*
X21532857Y7175477D01*
X21494761Y7137381D01*
X21456666Y7061191D01*
X21456666Y6908810D01*
X21494761Y6832620D01*
X21532857Y6794524D01*
X21609047Y6756429D01*
X21151904Y9715477D02*
X21151904Y9334524D01*
X21532857Y9296429D01*
X21494761Y9334524D01*
X21456666Y9410715D01*
X21456666Y9601191D01*
X21494761Y9677381D01*
X21532857Y9715477D01*
X21609047Y9753572D01*
X21799523Y9753572D01*
X21875714Y9715477D01*
X21913809Y9677381D01*
X21951904Y9601191D01*
X21951904Y9410715D01*
X21913809Y9334524D01*
X21875714Y9296429D01*
X21418571Y12217381D02*
X21951904Y12217381D01*
X21113809Y12026905D02*
X21685238Y11836429D01*
X21685238Y12331667D01*
X21151904Y14338334D02*
X21151904Y14833572D01*
X21456666Y14566905D01*
X21456666Y14681191D01*
X21494761Y14757381D01*
X21532857Y14795477D01*
X21609047Y14833572D01*
X21799523Y14833572D01*
X21875714Y14795477D01*
X21913809Y14757381D01*
X21951904Y14681191D01*
X21951904Y14452620D01*
X21913809Y14376429D01*
X21875714Y14338334D01*
X21228095Y16916429D02*
X21190000Y16954524D01*
X21151904Y17030715D01*
X21151904Y17221191D01*
X21190000Y17297381D01*
X21228095Y17335477D01*
X21304285Y17373572D01*
X21380476Y17373572D01*
X21494761Y17335477D01*
X21951904Y16878334D01*
X21951904Y17373572D01*
X21951904Y19913572D02*
X21951904Y19456429D01*
X21951904Y19685000D02*
X21151904Y19685000D01*
X21266190Y19608810D01*
X21342380Y19532620D01*
X21380476Y19456429D01*
D11*
X635000Y20955000D02*
X635000Y635000D01*
X22165000Y575000D02*
X24825000Y575000D01*
X22165000Y8255000D02*
X22165000Y575000D01*
X24825000Y8255000D02*
X24825000Y575000D01*
X22165000Y8255000D02*
X24825000Y8255000D01*
X22165000Y9525000D02*
X22165000Y10855000D01*
X22165000Y10855000D02*
X23495000Y10855000D01*
X22165000Y10735000D02*
X24825000Y10735000D01*
X22165000Y18415000D02*
X22165000Y10735000D01*
X24825000Y18415000D02*
X24825000Y10735000D01*
X22165000Y18415000D02*
X24825000Y18415000D01*
X22165000Y19685000D02*
X22165000Y21015000D01*
X22165000Y21015000D02*
X23495000Y21015000D01*
X20320000Y20955000D02*
X0Y20955000D01*
X20320000Y635000D02*
X20320000Y20955000D01*
X0Y635000D02*
X20320000Y635000D01*
X0Y20955000D02*
X0Y635000D01*
M02*
